<svg width="15" height="16" viewBox="0 0 15 16" fill="none" xmlns="http://www.w3.org/2000/svg">
<path d="M2.30453 5.05127C2.24486 4.99488 2.17467 4.9508 2.09796 4.92154C2.02126 4.89228 1.93954 4.87842 1.85748 4.88074C1.77541 4.88306 1.69461 4.90152 1.61968 4.93507C1.54475 4.96862 1.47717 5.0166 1.42078 5.07627C1.36439 5.13594 1.32031 5.20613 1.29105 5.28284C1.26179 5.35954 1.24793 5.44126 1.25025 5.52332C1.25257 5.60539 1.27103 5.68619 1.30458 5.76112C1.33813 5.83605 1.38611 5.90363 1.44578 5.96002L7.07078 11.2725C7.18682 11.3822 7.34046 11.4434 7.50016 11.4434C7.65985 11.4434 7.81349 11.3822 7.92953 11.2725L13.5552 5.96002C13.6161 5.90401 13.6654 5.83643 13.7 5.76123C13.7347 5.68603 13.754 5.60469 13.7569 5.52194C13.7599 5.43919 13.7464 5.35669 13.7171 5.27922C13.6879 5.20174 13.6436 5.13085 13.5868 5.07065C13.5299 5.01045 13.4617 4.96214 13.386 4.92854C13.3103 4.89493 13.2287 4.8767 13.1459 4.8749C13.0632 4.87309 12.9809 4.88776 12.9038 4.91804C12.8267 4.94831 12.7564 4.9936 12.697 5.05127L7.50016 9.95877L2.30453 5.05127Z" fill="#F3F3F3"/>
</svg>
