<svg width="15" height="16" viewBox="0 0 15 16" fill="none" xmlns="http://www.w3.org/2000/svg">
<path d="M2.30453 10.9487C2.24486 11.0051 2.17467 11.0492 2.09796 11.0785C2.02126 11.1077 1.93954 11.1216 1.85748 11.1193C1.77541 11.1169 1.69461 11.0985 1.61968 11.0649C1.54475 11.0314 1.47717 10.9834 1.42078 10.9237C1.36439 10.8641 1.32031 10.7939 1.29105 10.7172C1.26179 10.6405 1.24793 10.5587 1.25025 10.4767C1.25257 10.3946 1.27103 10.3138 1.30458 10.2389C1.33813 10.164 1.38611 10.0964 1.44578 10.04L7.07078 4.72748C7.18682 4.61777 7.34046 4.55664 7.50016 4.55664C7.65985 4.55664 7.81349 4.61777 7.92953 4.72748L13.5552 10.04C13.6161 10.096 13.6654 10.1636 13.7 10.2388C13.7347 10.314 13.754 10.3953 13.7569 10.4781C13.7599 10.5608 13.7464 10.6433 13.7171 10.7208C13.6879 10.7983 13.6436 10.8692 13.5868 10.9294C13.5299 10.9896 13.4617 11.0379 13.386 11.0715C13.3103 11.1051 13.2287 11.1233 13.1459 11.1251C13.0632 11.1269 12.9809 11.1122 12.9038 11.082C12.8267 11.0517 12.7564 11.0064 12.697 10.9487L7.50016 6.04123L2.30453 10.9487Z" fill="#F3F3F3"/>
</svg>
