<svg width="18" height="18" viewBox="0 0 18 18" fill="none" xmlns="http://www.w3.org/2000/svg">
<path d="M9 10.5577C8.81635 10.5577 8.65986 10.4931 8.53053 10.3637C8.40121 10.2344 8.33655 10.0779 8.33655 9.89427C8.33655 9.71062 8.40121 9.55413 8.53053 9.42481C8.65986 9.29548 8.81635 9.23082 9 9.23082C9.18365 9.23082 9.34013 9.29548 9.46946 9.42481C9.59878 9.55413 9.66345 9.71062 9.66345 9.89427C9.66345 10.0779 9.59878 10.2344 9.46946 10.3637C9.34013 10.4931 9.18365 10.5577 9 10.5577ZM6 10.5577C5.81635 10.5577 5.65986 10.4931 5.53053 10.3637C5.40121 10.2344 5.33655 10.0779 5.33655 9.89427C5.33655 9.71062 5.40121 9.55413 5.53053 9.42481C5.65986 9.29548 5.81635 9.23082 6 9.23082C6.18365 9.23082 6.34013 9.29548 6.46946 9.42481C6.59878 9.55413 6.66345 9.71062 6.66345 9.89427C6.66345 10.0779 6.59878 10.2344 6.46946 10.3637C6.34013 10.4931 6.18365 10.5577 6 10.5577ZM12 10.5577C11.8163 10.5577 11.6599 10.4931 11.5305 10.3637C11.4012 10.2344 11.3365 10.0779 11.3365 9.89427C11.3365 9.71062 11.4012 9.55413 11.5305 9.42481C11.6599 9.29548 11.8163 9.23082 12 9.23082C12.1836 9.23082 12.3401 9.29548 12.4695 9.42481C12.5988 9.55413 12.6634 9.71062 12.6634 9.89427C12.6634 10.0779 12.5988 10.2344 12.4695 10.3637C12.3401 10.4931 12.1836 10.5577 12 10.5577ZM9 13.5C8.81635 13.5 8.65986 13.4354 8.53053 13.306C8.40121 13.1767 8.33655 13.0202 8.33655 12.8366C8.33655 12.6529 8.40121 12.4964 8.53053 12.3671C8.65986 12.2378 8.81635 12.1731 9 12.1731C9.18365 12.1731 9.34013 12.2378 9.46946 12.3671C9.59878 12.4964 9.66345 12.6529 9.66345 12.8366C9.66345 13.0202 9.59878 13.1767 9.46946 13.306C9.34013 13.4354 9.18365 13.5 9 13.5ZM6 13.5C5.81635 13.5 5.65986 13.4354 5.53053 13.306C5.40121 13.1767 5.33655 13.0202 5.33655 12.8366C5.33655 12.6529 5.40121 12.4964 5.53053 12.3671C5.65986 12.2378 5.81635 12.1731 6 12.1731C6.18365 12.1731 6.34013 12.2378 6.46946 12.3671C6.59878 12.4964 6.66345 12.6529 6.66345 12.8366C6.66345 13.0202 6.59878 13.1767 6.46946 13.306C6.34013 13.4354 6.18365 13.5 6 13.5ZM12 13.5C11.8163 13.5 11.6599 13.4354 11.5305 13.306C11.4012 13.1767 11.3365 13.0202 11.3365 12.8366C11.3365 12.6529 11.4012 12.4964 11.5305 12.3671C11.6599 12.2378 11.8163 12.1731 12 12.1731C12.1836 12.1731 12.3401 12.2378 12.4695 12.3671C12.5988 12.4964 12.6634 12.6529 12.6634 12.8366C12.6634 13.0202 12.5988 13.1767 12.4695 13.306C12.3401 13.4354 12.1836 13.5 12 13.5ZM3.98079 16.125C3.60194 16.125 3.28127 15.9938 3.01877 15.7313C2.75627 15.4688 2.62502 15.1481 2.62502 14.7692V4.73082C2.62502 4.35197 2.75627 4.03129 3.01877 3.76879C3.28127 3.50629 3.60194 3.37504 3.98079 3.37504H5.01926V1.78851H6.17308V3.37504H11.8558V1.78851H12.9807V3.37504H14.0192C14.3981 3.37504 14.7187 3.50629 14.9812 3.76879C15.2437 4.03129 15.375 4.35197 15.375 4.73082V14.7692C15.375 15.1481 15.2437 15.4688 14.9812 15.7313C14.7187 15.9938 14.3981 16.125 14.0192 16.125H3.98079ZM3.98079 15H14.0192C14.0769 15 14.1298 14.976 14.1779 14.9279C14.226 14.8798 14.25 14.8269 14.25 14.7692V7.73082H3.75V14.7692C3.75 14.8269 3.77403 14.8798 3.82211 14.9279C3.8702 14.976 3.92309 15 3.98079 15Z" fill="#F2F2F2" fill-opacity="0.7"/>
</svg>
