<svg width="16" height="17" viewBox="0 0 16 17" fill="none" xmlns="http://www.w3.org/2000/svg">
<path d="M2.05074 13.8308L0.625742 8.95364C0.588242 8.80805 0.603992 8.6382 0.672992 8.44408C0.741992 8.24996 0.888742 8.11651 1.11324 8.04371L2.08824 7.71614V4.36761C2.08824 3.96724 2.23524 3.62463 2.52924 3.33976C2.82324 3.05489 3.17624 2.91221 3.58824 2.91173H5.83824V0.727905H10.3382V2.91173H12.5882C13.0007 2.91173 13.354 3.0544 13.648 3.33976C13.942 3.62511 14.0887 3.96773 14.0882 4.36761V7.71614L15.0632 8.04371C15.3257 8.14077 15.482 8.28345 15.532 8.47174C15.582 8.66004 15.5882 8.82067 15.5507 8.95364L14.1257 13.8308C13.5007 13.8308 12.932 13.6884 12.4195 13.4035C11.907 13.1187 11.4632 12.7758 11.0882 12.375C10.7132 12.7753 10.2695 13.1182 9.75699 13.4035C9.24449 13.6889 8.68824 13.8313 8.08824 13.8308C7.48824 13.8308 6.93199 13.6884 6.41949 13.4035C5.90699 13.1187 5.46324 12.7758 5.08824 12.375C4.71324 12.7753 4.26949 13.1182 3.75699 13.4035C3.24449 13.6889 2.67574 13.8313 2.05074 13.8308ZM0.588242 16.7426V15.2867H2.08824C2.61324 15.2867 3.13199 15.2079 3.64449 15.0501C4.15699 14.8924 4.63824 14.6558 5.08824 14.3404C5.53824 14.6558 6.01949 14.8864 6.53199 15.0319C7.04449 15.1775 7.56324 15.2503 8.08824 15.2503C8.61324 15.2503 9.13199 15.1775 9.64449 15.0319C10.157 14.8864 10.6382 14.6558 11.0882 14.3404C11.5382 14.6558 12.0195 14.8924 12.532 15.0501C13.0445 15.2079 13.5632 15.2867 14.0882 15.2867H15.5882V16.7426H14.0882C13.5632 16.7426 13.0507 16.6819 12.5507 16.5606C12.0507 16.4393 11.5632 16.2573 11.0882 16.0147C10.6132 16.2573 10.1225 16.4393 9.61599 16.5606C9.10949 16.6819 8.60024 16.7426 8.08824 16.7426C7.57574 16.7426 7.06649 16.6819 6.56049 16.5606C6.05449 16.4393 5.56374 16.2573 5.08824 16.0147C4.61324 16.2573 4.12574 16.4393 3.62574 16.5606C3.12574 16.6819 2.61324 16.7426 2.08824 16.7426H0.588242ZM3.58824 7.24298L8.08824 5.82349L12.5882 7.24298V4.36761H3.58824V7.24298Z" fill="#F2F2F2" fill-opacity="0.7"/>
</svg>
