<svg width="16" height="17" viewBox="0 0 16 17" fill="none" xmlns="http://www.w3.org/2000/svg">
<path d="M4.48033 11.593C4.65006 11.5435 4.83252 11.5634 4.98755 11.6485C5.14258 11.7335 5.25749 11.8766 5.30699 12.0463C5.3565 12.2161 5.33655 12.3985 5.25153 12.5536C5.16652 12.7086 5.0234 12.8235 4.85366 12.873C4.52033 12.9703 4.28033 13.073 4.12633 13.1663C4.28499 13.2617 4.53566 13.3683 4.88366 13.4677C5.65366 13.6877 6.75566 13.833 8.00033 13.833C9.24499 13.833 10.347 13.6877 11.117 13.4677C11.4657 13.3683 11.7157 13.2617 11.8743 13.1663C11.721 13.073 11.481 12.9703 11.1477 12.873C10.9806 12.8213 10.8405 12.7061 10.7576 12.5521C10.6748 12.3981 10.6557 12.2177 10.7046 12.0498C10.7535 11.8819 10.8664 11.7399 11.019 11.6544C11.1716 11.569 11.3516 11.5469 11.5203 11.593C11.9657 11.723 12.3737 11.8897 12.687 12.1037C12.977 12.303 13.3337 12.6503 13.3337 13.1663C13.3337 13.6883 12.9683 14.0383 12.6737 14.2377C12.355 14.4523 11.9383 14.6197 11.483 14.7497C10.5643 15.013 9.33366 15.1663 8.00033 15.1663C6.66699 15.1663 5.43633 15.013 4.51766 14.7497C4.06233 14.6197 3.64566 14.4523 3.32699 14.2377C3.03233 14.0377 2.66699 13.6883 2.66699 13.1663C2.66699 12.6503 3.02366 12.303 3.31366 12.1037C3.62699 11.8897 4.03499 11.723 4.48033 11.593ZM8.00033 1.83301C9.32641 1.83301 10.5982 2.35979 11.5359 3.29747C12.4735 4.23516 13.0003 5.50693 13.0003 6.83301C13.0003 8.54501 12.067 9.93701 11.1003 10.9263C10.7161 11.3156 10.3031 11.6755 9.86499 12.003C9.46899 12.3003 8.56366 12.8577 8.56366 12.8577C8.39195 12.9553 8.19783 13.0066 8.00033 13.0066C7.80282 13.0066 7.6087 12.9553 7.43699 12.8577C6.9875 12.5975 6.55304 12.3121 6.13566 12.003C5.69735 11.6757 5.2844 11.3158 4.90033 10.9263C3.93366 9.93701 3.00033 8.54501 3.00033 6.83301C3.00033 5.50693 3.52711 4.23516 4.46479 3.29747C5.40247 2.35979 6.67424 1.83301 8.00033 1.83301ZM8.00033 5.49967C7.6467 5.49967 7.30757 5.64015 7.05752 5.8902C6.80747 6.14025 6.66699 6.47939 6.66699 6.83301C6.66699 7.18663 6.80747 7.52577 7.05752 7.77582C7.30757 8.02586 7.6467 8.16634 8.00033 8.16634C8.35395 8.16634 8.69309 8.02586 8.94313 7.77582C9.19318 7.52577 9.33366 7.18663 9.33366 6.83301C9.33366 6.47939 9.19318 6.14025 8.94313 5.8902C8.69309 5.64015 8.35395 5.49967 8.00033 5.49967Z" fill="#F2F2F2" fill-opacity="0.7"/>
</svg>
