<svg width="16" height="16" viewBox="0 0 16 16" fill="none" xmlns="http://www.w3.org/2000/svg">
<path d="M7.99999 15.2C7.00399 15.2 6.06799 15.0109 5.19199 14.6326C4.31599 14.2544 3.55399 13.7415 2.90599 13.094C2.25799 12.446 1.74511 11.684 1.36735 10.808C0.989588 9.93199 0.800468 8.99599 0.799988 7.99999C0.799988 7.00399 0.989108 6.06799 1.36735 5.19199C1.74559 4.31599 2.25847 3.55399 2.90599 2.90599C3.55399 2.25799 4.31599 1.74511 5.19199 1.36735C6.06799 0.989588 7.00399 0.800468 7.99999 0.799988C8.99599 0.799988 9.93199 0.989108 10.808 1.36735C11.684 1.74559 12.446 2.25847 13.094 2.90599C13.742 3.55399 14.2551 4.31599 14.6333 5.19199C15.0116 6.06799 15.2005 7.00399 15.2 7.99999C15.2 8.99599 15.0109 9.93199 14.6326 10.808C14.2544 11.684 13.7415 12.446 13.094 13.094C12.446 13.742 11.684 14.2551 10.808 14.6333C9.93199 15.0116 8.99599 15.2005 7.99999 15.2ZM3.91399 3.91399L7.99999 7.99999V2.23999C7.23199 2.23999 6.49399 2.38399 5.78599 2.67199C5.07799 2.95999 4.45399 3.37399 3.91399 3.91399Z" fill="#F2F2F2" fill-opacity="0.7"/>
</svg>
