<svg width="16" height="16" viewBox="0 0 16 16" fill="none" xmlns="http://www.w3.org/2000/svg">
<path d="M7.994 15.5C6.9565 15.5 5.9815 15.3037 5.069 14.9112C4.157 14.5187 3.364 13.9842 2.69 13.3077C2.0155 12.6307 1.482 11.8372 1.0895 10.9272C0.6965 10.0172 0.5 9.0435 0.5 8.006C0.5 6.9575 0.69625 5.9775 1.08875 5.066C1.48125 4.154 2.01575 3.359 2.69225 2.681C3.36925 2.003 4.16275 1.47 5.07275 1.082C5.98275 0.694 6.95675 0.5 7.99475 0.5C9.04475 0.5 10.0257 0.694 10.9377 1.082C11.8502 1.47 12.6447 2.00225 13.3212 2.67875C13.9977 3.35525 14.53 4.14975 14.918 5.06225C15.306 5.97475 15.5 6.95575 15.5 8.00525C15.5 9.04325 15.306 10.0172 14.918 10.9272C14.53 11.8372 13.997 12.6307 13.319 13.3077C12.641 13.9842 11.846 14.5187 10.934 14.9112C10.0225 15.3037 9.0425 15.5 7.994 15.5ZM7.53125 12.6777C7.65625 12.8027 7.8 12.8652 7.9625 12.8652C8.125 12.8652 8.26875 12.8027 8.39375 12.6777L12.6402 8.43125C12.7652 8.30625 12.8277 8.15625 12.8277 7.98125C12.8277 7.80625 12.7652 7.65625 12.6402 7.53125L8.39375 3.28475C8.26875 3.15975 8.125 3.09725 7.9625 3.09725C7.8 3.09725 7.65625 3.15975 7.53125 3.28475L3.28475 7.53125C3.15975 7.65625 3.09725 7.80625 3.09725 7.98125C3.09725 8.15625 3.15975 8.30625 3.28475 8.43125L7.53125 12.6777ZM5.35625 9.85625V7.23425C5.35625 7.12275 5.39075 7.03175 5.45975 6.96125C5.52825 6.89125 5.61875 6.85625 5.73125 6.85625H9.76625L8.57525 5.65625L9.10625 5.12525L11.2122 7.23125L9.10625 9.33725L8.57525 8.80625L9.767 7.60625H6.10625V9.85625H5.35625Z" fill="#F2F2F2" fill-opacity="0.7"/>
</svg>
