<svg width="16" height="13" viewBox="0 0 16 13" fill="none" xmlns="http://www.w3.org/2000/svg">
<path d="M0.8 0.791672C1.2425 0.791672 1.6 1.14545 1.6 1.58334V7.91667H7.2V3.95834C7.2 3.52045 7.5575 3.16667 8 3.16667H13.6C14.925 3.16667 16 4.23047 16 5.54167V11.0833C16 11.5212 15.6425 11.875 15.2 11.875C14.7575 11.875 14.4 11.5212 14.4 11.0833V10.2917H1.6V11.0833C1.6 11.5212 1.2425 11.875 0.8 11.875C0.3575 11.875 0 11.5212 0 11.0833V1.58334C0 1.14545 0.3575 0.791672 0.8 0.791672ZM4.4 3.16667C4.93043 3.16667 5.43914 3.37519 5.81421 3.74636C6.18929 4.11752 6.4 4.62093 6.4 5.14584C6.4 5.67075 6.18929 6.17415 5.81421 6.54532C5.43914 6.91649 4.93043 7.125 4.4 7.125C3.86957 7.125 3.36086 6.91649 2.98579 6.54532C2.61071 6.17415 2.4 5.67075 2.4 5.14584C2.4 4.62093 2.61071 4.11752 2.98579 3.74636C3.36086 3.37519 3.86957 3.16667 4.4 3.16667Z" fill="white"/>
</svg>
