<svg width="16" height="16" viewBox="0 0 16 16" fill="none" xmlns="http://www.w3.org/2000/svg">
<path d="M12.4391 7.43926C13.1612 7.43926 13.7466 6.85386 13.7466 6.13174C13.7466 5.40962 13.1612 4.82422 12.4391 4.82422C11.717 4.82422 11.1316 5.40962 11.1316 6.13174C11.1316 6.85386 11.717 7.43926 12.4391 7.43926Z" fill="black"/>
<path d="M14.2333 8.63093C13.6479 8.50245 13.0444 8.43797 12.4404 8.43797C12.2063 8.43797 11.9721 8.44789 11.7388 8.46725C11.6233 8.47685 11.5425 8.58037 11.5489 8.69605C11.5513 8.74133 11.5513 8.78645 11.5484 8.83157C11.4957 9.53845 11.4431 10.2585 11.3906 10.9927C11.3631 11.3671 11.2281 11.7317 11.0225 12.0473C11.0938 12.0797 11.1669 12.1041 11.2409 12.1164C11.7116 12.1845 12.1962 12.2119 12.6777 12.1991C14.1594 12.1045 14.6581 10.5333 14.7372 9.30245C14.7546 9.02549 14.51 8.69797 14.2333 8.63093Z" fill="black"/>
<path d="M3.56094 7.43926C4.28306 7.43926 4.86846 6.85386 4.86846 6.13174C4.86846 5.40962 4.28306 4.82422 3.56094 4.82422C2.83881 4.82422 2.25342 5.40962 2.25342 6.13174C2.25342 6.85386 2.83881 7.43926 3.56094 7.43926Z" fill="black"/>
<path d="M1.26315 9.30498C1.31499 10.0069 1.37403 10.6303 1.78875 11.2231C2.14299 11.7293 2.68907 12.1605 3.32619 12.1995C3.80011 12.213 4.28539 12.1853 4.76171 12.1162C4.83499 12.1037 4.90731 12.0795 4.97803 12.0474C4.77227 11.7319 4.63723 11.3674 4.60971 10.9933C4.55707 10.2586 4.50443 9.53858 4.45211 8.8341C4.44923 8.78802 4.44907 8.74194 4.45163 8.69586C4.45803 8.58018 4.37723 8.47681 4.26171 8.46721C4.02939 8.44785 3.79595 8.4381 3.56251 8.4381C2.95707 8.4381 2.35115 8.50274 1.76203 8.63202C1.48987 8.69794 1.24507 9.02546 1.26315 9.30498Z" fill="black"/>
<path d="M8.00012 6.62482C8.9056 6.62482 9.63964 5.89078 9.63964 4.9853C9.63964 4.07982 8.9056 3.34578 8.00012 3.34578C7.09463 3.34578 6.3606 4.07982 6.3606 4.9853C6.3606 5.89078 7.09463 6.62482 8.00012 6.62482Z" fill="black"/>
<path d="M10.3609 7.84549C9.5902 7.67621 8.79612 7.59157 8.0014 7.59157C7.2054 7.59157 6.40876 7.67653 5.63436 7.84661C5.24012 7.94197 4.90028 8.39765 4.9262 8.80133C4.97852 9.50389 5.031 10.2244 5.08364 10.9589C5.13852 11.7042 5.7518 12.4288 6.42268 12.5408C7.46668 12.6922 8.53052 12.6922 9.57964 12.5405C10.2497 12.4272 10.8616 11.7034 10.9164 10.9586C10.9691 10.2244 11.0216 9.50389 11.074 8.79893C11.1001 8.39749 10.7601 7.94197 10.3609 7.84549Z" fill="black"/>
</svg>
