<svg width="16" height="16" viewBox="0 0 16 16" fill="none" xmlns="http://www.w3.org/2000/svg">
<mask id="mask0_2653_811" style="mask-type:luminance" maskUnits="userSpaceOnUse" x="1" y="2" width="14" height="12">
<path d="M9.33325 2.66667H6.66658C4.15259 2.66667 2.89525 2.66667 2.11459 3.448C1.55192 4.01 1.39459 4.81934 1.35059 6.16667H14.6493C14.6053 4.81934 14.4479 4.01 13.8853 3.448C13.1046 2.66667 11.8473 2.66667 9.33325 2.66667ZM6.66658 13.3333H9.33325C11.8473 13.3333 13.1046 13.3333 13.8853 12.552C14.6666 11.7713 14.6666 10.514 14.6666 8C14.6666 7.70534 14.6666 7.428 14.6653 7.16667H1.33459C1.33325 7.428 1.33325 7.70534 1.33325 8C1.33325 10.514 1.33325 11.7713 2.11459 12.552C2.89525 13.3333 4.15259 13.3333 6.66658 13.3333Z" fill="white"/>
<path fill-rule="evenodd" clip-rule="evenodd" d="M3.5 10.6667C3.5 10.5341 3.55268 10.4069 3.64645 10.3131C3.74021 10.2194 3.86739 10.1667 4 10.1667H6.66667C6.79927 10.1667 6.92645 10.2194 7.02022 10.3131C7.11399 10.4069 7.16667 10.5341 7.16667 10.6667C7.16667 10.7993 7.11399 10.9265 7.02022 11.0202C6.92645 11.114 6.79927 11.1667 6.66667 11.1667H4C3.86739 11.1667 3.74021 11.114 3.64645 11.0202C3.55268 10.9265 3.5 10.7993 3.5 10.6667ZM7.83333 10.6667C7.83333 10.5341 7.88601 10.4069 7.97978 10.3131C8.07355 10.2194 8.20073 10.1667 8.33333 10.1667H9.33333C9.46594 10.1667 9.59312 10.2194 9.68689 10.3131C9.78065 10.4069 9.83333 10.5341 9.83333 10.6667C9.83333 10.7993 9.78065 10.9265 9.68689 11.0202C9.59312 11.114 9.46594 11.1667 9.33333 11.1667H8.33333C8.20073 11.1667 8.07355 11.114 7.97978 11.0202C7.88601 10.9265 7.83333 10.7993 7.83333 10.6667Z" fill="black"/>
</mask>
<g mask="url(#mask0_2653_811)">
<path d="M0 0H16V16H0V0Z" fill="white"/>
</g>
</svg>
