<svg width="15" height="15" viewBox="0 0 15 15" fill="none" xmlns="http://www.w3.org/2000/svg">
<path d="M4.55127 2.30453C4.49488 2.24486 4.4508 2.17467 4.42154 2.09796C4.39228 2.02126 4.37842 1.93954 4.38074 1.85748C4.38306 1.77541 4.40152 1.69461 4.43507 1.61968C4.46862 1.54475 4.5166 1.47717 4.57627 1.42078C4.63594 1.36439 4.70613 1.32031 4.78284 1.29105C4.85954 1.26179 4.94126 1.24793 5.02332 1.25025C5.10539 1.25257 5.18619 1.27103 5.26112 1.30458C5.33605 1.33813 5.40363 1.38611 5.46002 1.44578L10.7725 7.07078C10.8822 7.18682 10.9434 7.34046 10.9434 7.50016C10.9434 7.65985 10.8822 7.81349 10.7725 7.92953L5.46002 13.5552C5.40401 13.6161 5.33643 13.6654 5.26123 13.7C5.18603 13.7347 5.10469 13.754 5.02194 13.7569C4.93919 13.7599 4.85669 13.7464 4.77922 13.7171C4.70174 13.6879 4.63085 13.6436 4.57065 13.5868C4.51045 13.5299 4.46214 13.4617 4.42854 13.386C4.39493 13.3103 4.3767 13.2287 4.3749 13.1459C4.37309 13.0632 4.38776 12.9809 4.41803 12.9038C4.44831 12.8267 4.4936 12.7564 4.55127 12.697L9.45877 7.50016L4.55127 2.30453Z" fill="#F3F3F3"/>
</svg>
