<svg width="16" height="16" viewBox="0 0 16 16" fill="none" xmlns="http://www.w3.org/2000/svg">
<path d="M11.9999 2C12.1632 2.00002 12.3208 2.05997 12.4428 2.16848C12.5649 2.27698 12.6428 2.4265 12.6619 2.58867L12.6666 2.66667V13.3333C12.6664 13.5033 12.6013 13.6667 12.4847 13.7902C12.368 13.9138 12.2086 13.9882 12.039 13.9981C11.8694 14.0081 11.7023 13.9529 11.572 13.8438C11.4417 13.7348 11.358 13.5801 11.3379 13.4113L11.3333 13.3333V10H10.6666C10.5033 9.99998 10.3457 9.94003 10.2237 9.83152C10.1016 9.72302 10.0237 9.5735 10.0046 9.41133L9.99992 9.33333V5.33333C9.99992 3.86 10.9999 2 11.9999 2ZM7.99992 2C8.16321 2.00002 8.32081 2.05997 8.44284 2.16848C8.56486 2.27698 8.64282 2.4265 8.66192 2.58867L8.66659 2.66667V6C8.66651 6.59125 8.47004 7.16572 8.10803 7.63319C7.74603 8.10065 7.239 8.43463 6.66659 8.58267V13.3333C6.6664 13.5033 6.60133 13.6667 6.48469 13.7902C6.36804 13.9138 6.20862 13.9882 6.03899 13.9981C5.86936 14.0081 5.70233 13.9529 5.57203 13.8438C5.44173 13.7348 5.35799 13.5801 5.33792 13.4113L5.33325 13.3333V8.58267C4.78355 8.44056 4.29352 8.1268 3.93443 7.68701C3.57533 7.24722 3.3659 6.70435 3.33659 6.13733L3.33325 6V2.66667C3.33344 2.49675 3.3985 2.33331 3.51515 2.20975C3.6318 2.0862 3.79122 2.01184 3.96085 2.00189C4.13048 1.99193 4.29751 2.04712 4.42781 2.15618C4.55811 2.26524 4.64185 2.41994 4.66192 2.58867L4.66659 2.66667V6C4.66659 6.23404 4.7282 6.46396 4.84523 6.66665C4.96225 6.86933 5.13057 7.03764 5.33325 7.15467V2.66667C5.33344 2.49675 5.39851 2.33331 5.51515 2.20975C5.6318 2.0862 5.79122 2.01184 5.96085 2.00189C6.13048 1.99193 6.29751 2.04712 6.42781 2.15618C6.55811 2.26524 6.64185 2.41994 6.66192 2.58867L6.66659 2.66667L6.66725 7.15467C6.85329 7.04713 7.01059 6.89622 7.12574 6.71479C7.24089 6.53336 7.31048 6.32679 7.32859 6.11267L7.33325 6V2.66667C7.33325 2.48986 7.40349 2.32029 7.52852 2.19526C7.65354 2.07024 7.82311 2 7.99992 2Z" fill="white"/>
</svg>
