<svg width="16" height="16" viewBox="0 0 16 16" fill="none" xmlns="http://www.w3.org/2000/svg">
<g clip-path="url(#clip0_2653_828)">
<path fill-rule="evenodd" clip-rule="evenodd" d="M9.4739 11.8507C9.82047 11.6774 10.2006 11.5817 10.588 11.5703C10.9753 11.5589 11.3604 11.6321 11.7166 11.7847L11.8592 11.8513L13.6312 12.7367C13.7834 12.8127 13.9008 12.944 13.9594 13.1037C14.0179 13.2635 14.0132 13.4395 13.9461 13.5959C13.8791 13.7522 13.7548 13.877 13.5987 13.9447C13.4426 14.0124 13.2665 14.0179 13.1066 13.96L13.0352 13.9293L11.2626 13.0433C11.0963 12.9602 10.9146 12.9128 10.7289 12.9041C10.5433 12.8953 10.3579 12.9255 10.1846 12.9927L10.0699 13.0433L9.19257 13.4827C8.84585 13.6559 8.46554 13.7515 8.07811 13.7628C7.69067 13.7741 7.30544 13.7008 6.94923 13.548L6.80723 13.4827L5.92923 13.0433C5.763 12.9602 5.58123 12.9128 5.39559 12.9041C5.20994 12.8953 5.02453 12.9255 4.85123 12.9927L4.73657 13.0433L2.96457 13.93C2.81233 14.007 2.63638 14.0227 2.47293 13.9739C2.30947 13.925 2.17095 13.8154 2.08587 13.6676C2.0008 13.5197 1.97564 13.3448 2.01558 13.179C2.05551 13.0131 2.15751 12.8689 2.30057 12.776L2.36857 12.7367L4.14057 11.8507C4.48714 11.6774 4.86731 11.5817 5.25462 11.5703C5.64193 11.5589 6.02707 11.6321 6.38323 11.7847L6.5259 11.8513L7.40323 12.29C7.56955 12.3732 7.75144 12.4207 7.93721 12.4294C8.12297 12.4381 8.30851 12.4079 8.4819 12.3407L8.5959 12.29L9.4739 11.8507ZM8.66657 1.33333C8.84338 1.33333 9.01295 1.40357 9.13797 1.52859C9.26299 1.65361 9.33323 1.82318 9.33323 1.99999V2.87999L11.5526 3.24933C11.8638 3.30139 12.1464 3.46213 12.3503 3.70297C12.5541 3.94381 12.666 4.24913 12.6659 4.56466V6.85266L14.0392 7.30999C14.1486 7.34648 14.2492 7.40527 14.3347 7.48264C14.4202 7.56001 14.4887 7.65428 14.5359 7.75949C14.5831 7.8647 14.6079 7.97855 14.6088 8.09385C14.6097 8.20915 14.5867 8.32338 14.5412 8.42933L13.0952 11.8027L11.8592 11.184C11.4889 10.9988 11.0806 10.9024 10.6666 10.9024C10.2525 10.9024 9.84421 10.9988 9.4739 11.184L8.5959 11.6233C8.41075 11.7159 8.20658 11.7641 7.99957 11.7641C7.79255 11.7641 7.58839 11.7159 7.40323 11.6233L6.5259 11.184C6.15559 10.9988 5.74726 10.9024 5.33323 10.9024C4.91921 10.9024 4.51087 10.9988 4.14057 11.184L3.2939 11.608L1.5219 8.50733C1.46073 8.40028 1.42408 8.28099 1.41458 8.15807C1.40509 8.03515 1.42299 7.91165 1.46699 7.79648C1.51099 7.6813 1.58 7.57733 1.66904 7.49205C1.75808 7.40678 1.86494 7.34232 1.9819 7.30333L3.33323 6.85266V4.56466C3.33317 4.24913 3.445 3.94381 3.64885 3.70297C3.85271 3.46213 4.13536 3.30139 4.44657 3.24933L6.66657 2.87999V1.99999C6.66657 1.82318 6.7368 1.65361 6.86183 1.52859C6.98685 1.40357 7.15642 1.33333 7.33323 1.33333H8.66657ZM7.9999 4.00933L4.66657 4.56466V6.40866L7.5779 5.43799C7.85161 5.34675 8.14753 5.34675 8.42123 5.43799L11.3332 6.40866V4.56466L7.9999 4.00933Z" fill="white"/>
</g>
<defs>
<clipPath id="clip0_2653_828">
<rect width="16" height="16" fill="white"/>
</clipPath>
</defs>
</svg>
