<svg width="21" height="20" viewBox="0 0 21 20" fill="none" xmlns="http://www.w3.org/2000/svg">
<mask id="mask0_610_4823" style="mask-type:luminance" maskUnits="userSpaceOnUse" x="1" y="0" width="19" height="20">
<path d="M10.4994 18.3334C11.5939 18.3348 12.678 18.1199 13.6892 17.7011C14.7004 17.2822 15.6189 16.6676 16.3919 15.8926C17.1668 15.1196 17.7814 14.2012 18.2003 13.1899C18.6192 12.1787 18.8341 11.0946 18.8327 10.0001C18.8341 8.90554 18.6192 7.8215 18.2003 6.81027C17.7814 5.79904 17.1668 4.88055 16.3919 4.10759C15.6189 3.3326 14.7004 2.718 13.6892 2.29912C12.678 1.88024 11.5939 1.66534 10.4994 1.66676C9.4048 1.66536 8.32077 1.88028 7.30953 2.29916C6.2983 2.71804 5.37982 3.33262 4.60686 4.10759C3.83189 4.88055 3.2173 5.79904 2.79842 6.81027C2.37954 7.8215 2.16463 8.90554 2.16602 10.0001C2.1646 11.0946 2.37951 12.1787 2.79839 13.1899C3.21727 14.2012 3.83187 15.1196 4.60686 15.8926C5.37982 16.6676 6.2983 17.2821 7.30953 17.701C8.32077 18.1199 9.4048 18.3348 10.4994 18.3334Z" fill="white" stroke="white" stroke-width="1.66667" stroke-linejoin="round"/>
<path d="M7.16602 10.0001L9.66602 12.5001L14.666 7.50012" stroke="black" stroke-width="1.66667" stroke-linecap="round" stroke-linejoin="round"/>
</mask>
<g mask="url(#mask0_610_4823)">
<path d="M0.499512 0H20.4995V20H0.499512V0Z" fill="#7FFE02"/>
</g>
</svg>
